<svg width="27" height="27" viewBox="0 0 27 27" fill="none" xmlns="http://www.w3.org/2000/svg">
<path d="M6.35714 0.5V9.12069M20.6429 0.5V9.12069M5.46429 13.431H10.8214M21.5357 13.431H16.1786M5.46429 18.6034H10.8214M16.1786 18.6034H21.5357M2.78571 4.81034H24.2143C24.6879 4.81034 25.1421 4.99199 25.477 5.31533C25.8119 5.63867 26 6.07721 26 6.53448V23.7759C26 24.2331 25.8119 24.6717 25.477 24.995C25.1421 25.3183 24.6879 25.5 24.2143 25.5H2.78571C2.31211 25.5 1.85791 25.3183 1.52302 24.995C1.18814 24.6717 1 24.2331 1 23.7759V6.53448C1 6.07721 1.18814 5.63867 1.52302 5.31533C1.85791 4.99199 2.31211 4.81034 2.78571 4.81034Z" stroke="white" stroke-width="2"/>
</svg>
