<svg width="15" height="15" viewBox="0 0 15 15" fill="none" xmlns="http://www.w3.org/2000/svg">
<path d="M7.5 0L0 1.875V3.125L7.5 1.25L15 3.125V1.875L7.5 0ZM4.03846 3.75C2.17673 3.75 0.360577 4.57062 0.360577 4.57062L0 4.74563V14.375H6.50827C6.70904 14.7487 7.07365 15 7.5 15C7.92577 15 8.29096 14.7487 8.49173 14.375H15V4.74625L14.6394 4.57062C14.6394 4.57062 12.8233 3.75 10.9615 3.75C9.27808 3.75 7.8 4.3625 7.5 4.4925C7.2 4.3625 5.72192 3.75 4.03846 3.75ZM4.03846 5C5.15423 5 6.34615 5.39062 6.92308 5.60562V12.5587C6.28096 12.3294 5.22635 12.0119 4.03846 12.0119C2.82577 12.0119 1.83865 12.3144 1.15385 12.5587V5.60562C1.59808 5.43125 2.76923 5 4.03846 5ZM10.9615 5C12.2308 5 13.4019 5.43187 13.8462 5.60562V12.5587C13.1608 12.315 12.1742 12.0119 10.9615 12.0119C9.77365 12.0119 8.71904 12.3294 8.07692 12.5587V5.60562C8.65385 5.39062 9.84577 5 10.9615 5Z" fill="white"/>
</svg>
