<svg width="27" height="28" viewBox="0 0 27 28" fill="none" xmlns="http://www.w3.org/2000/svg">
<path d="M3.77778 14H1L13.5 1.5L26 14H23.2222M3.77778 14V23.7222C3.77778 24.4589 4.07044 25.1655 4.59137 25.6864C5.1123 26.2073 5.81884 26.5 6.55556 26.5H20.4444C21.1812 26.5 21.8877 26.2073 22.4086 25.6864C22.9296 25.1655 23.2222 24.4589 23.2222 23.7222V14" stroke="white" stroke-opacity="0.9" stroke-width="2" stroke-linecap="round" stroke-linejoin="round"/>
<path d="M9.33331 26.5V18.1667C9.33331 17.43 9.62597 16.7234 10.1469 16.2025C10.6678 15.6815 11.3744 15.3889 12.1111 15.3889H14.8889C15.6256 15.3889 16.3321 15.6815 16.8531 16.2025C17.374 16.7234 17.6666 17.43 17.6666 18.1667V26.5" stroke="white" stroke-opacity="0.9" stroke-width="2" stroke-linecap="round" stroke-linejoin="round"/>
</svg>
