<svg width="20" height="16" viewBox="0 0 20 16" fill="none" xmlns="http://www.w3.org/2000/svg">
<path d="M18 0H2C0.9 0 0 0.9 0 2V14C0 15.1 0.9 16 2 16H18C19.1 16 20 15.1 20 14V2C20 0.9 19.1 0 18 0ZM5.64 10.47C5.64 10.76 5.4 11 5.11 11H5.02C4.73 11 4.49 10.76 4.49 10.47V6.5L4.04 6.83C3.9256 6.90366 3.78739 6.93088 3.6536 6.90609C3.51981 6.88129 3.40053 6.80636 3.32012 6.6966C3.23971 6.58683 3.20424 6.45051 3.22094 6.31547C3.23765 6.18043 3.30527 6.05686 3.41 5.97L4.6 5.12C4.69887 5.05038 4.81496 5.00926 4.93561 5.00112C5.05626 4.99299 5.17682 5.01816 5.28414 5.07388C5.39146 5.1296 5.4814 5.21374 5.54416 5.3171C5.60691 5.42046 5.64007 5.53908 5.64 5.66V10.47ZM11.01 11H8.34C7.94 11 7.62 10.68 7.62 10.28C7.62 10.09 7.7 9.9 7.83 9.77C8.78 8.82 9.41 8.19 9.75 7.83C10.15 7.41 10.29 7.14 10.29 6.77C10.29 6.37 9.98 6.05 9.48 6.05C9.14 6.05 8.91 6.21 8.76 6.42C8.61 6.62 8.35 6.68 8.12 6.58C8.0411 6.54772 7.97083 6.49747 7.91476 6.43327C7.85869 6.36906 7.81837 6.29265 7.79701 6.21013C7.77565 6.1276 7.77384 6.04123 7.79172 5.95788C7.8096 5.87453 7.84667 5.7965 7.9 5.73C8.05 5.54 8.27 5.35 8.57 5.2C9.26 4.87 10.05 5 10.52 5.23C11.38 5.67 11.43 6.47 11.43 6.71C11.43 7.35 11.12 7.97 10.51 8.57C10.26 8.82 9.79 9.28 9.11 9.96L9.14 10.01H11.02C11.29 10.01 11.51 10.23 11.51 10.5C11.51 10.77 11.28 11 11.01 11ZM16.75 10.15C16.67 10.28 16.19 11 14.99 11C14.96 11 13.76 11.06 13.16 10.02C13.01 9.76 13.12 9.42 13.4 9.31L13.52 9.26C13.74 9.17 13.99 9.25 14.11 9.45C14.25 9.69 14.5 9.94 14.99 9.94C15.4 9.94 15.88 9.66 15.88 9.17C15.88 8.62 15.4 8.38 14.84 8.38C14.7091 8.37738 14.5845 8.32355 14.4929 8.23006C14.4013 8.13658 14.35 8.01089 14.35 7.88C14.35 7.62 14.55 7.41 14.8 7.39V7.38C15.13 7.38 15.68 7.24 15.68 6.66C15.68 6.27 15.37 6.01 14.93 6.01C14.61 6.01 14.4 6.14 14.26 6.31C14.12 6.49 13.89 6.57 13.68 6.48L13.6 6.45C13.3 6.33 13.2 5.95 13.4 5.7C13.67 5.35 14.16 5 14.94 5C16.03 5 16.48 5.64 16.56 5.75C16.89 6.25 16.84 6.91 16.58 7.32C16.43 7.54 16.26 7.7 16.06 7.8V7.87C16.34 7.98 16.57 8.15 16.74 8.39C17.11 8.91 17.07 9.66 16.75 10.15Z" fill="black" fill-opacity="0.66"/>
</svg>
