<svg width="16" height="16" viewBox="0 0 16 16" fill="none" xmlns="http://www.w3.org/2000/svg">
<path d="M10.1161 0C9.17886 0.000593041 8.25531 0.22468 7.42209 0.653656C6.58887 1.08263 5.87003 1.70412 5.32525 2.46652C4.78047 3.22893 4.42547 4.11025 4.28971 5.03732C4.15395 5.96439 4.24137 6.91046 4.54468 7.79698L0.132868 12.2083C0.0478974 12.2931 0.000105722 12.4082 0 12.5283V15.5472C0 15.6673 0.0477222 15.7824 0.132668 15.8674C0.217615 15.9523 0.332827 16 0.452959 16H3.47268C3.59281 16 3.70803 15.9523 3.79297 15.8674C3.87792 15.7824 3.92564 15.6673 3.92564 15.5472V14.1887H5.28452C5.40465 14.1887 5.51986 14.141 5.60481 14.056C5.68975 13.9711 5.73748 13.8559 5.73748 13.7358V12.3774H7.09635C7.21644 12.3773 7.33158 12.3295 7.41644 12.2445L8.20535 11.4566C9.01416 11.7333 9.87353 11.8305 10.7237 11.7417C11.574 11.6528 12.3946 11.38 13.1287 10.9421C13.8628 10.5042 14.4928 9.91178 14.9747 9.20597C15.4567 8.50017 15.7792 7.69791 15.9198 6.85495C16.0604 6.01198 16.0157 5.14852 15.7889 4.32456C15.562 3.5006 15.1584 2.7359 14.6061 2.08359C14.0539 1.43128 13.3661 0.907007 12.5908 0.547194C11.8154 0.187381 10.9709 0.000658671 10.1161 0ZM10.1161 10.8679C9.48446 10.869 8.85845 10.7494 8.27178 10.5155C8.18834 10.4791 8.09589 10.4688 8.00648 10.4857C7.91706 10.5027 7.83483 10.5462 7.7705 10.6106L6.90837 11.4717H5.28452C5.16439 11.4717 5.04917 11.5194 4.96423 11.6043C4.87928 11.6893 4.83156 11.8044 4.83156 11.9245V13.283H3.47268C3.35255 13.283 3.23734 13.3307 3.15239 13.4156C3.06745 13.5006 3.01972 13.6158 3.01972 13.7358V15.0943H0.905917V12.7162L5.39096 8.2317C5.45534 8.16739 5.49885 8.08518 5.51582 7.9958C5.53278 7.90641 5.52242 7.81398 5.48608 7.73057C5.09151 6.74057 5.02493 5.65016 5.29613 4.61953C5.56733 3.58891 6.16201 2.67241 6.99281 2.00468C7.8236 1.33695 8.84671 0.953191 9.91182 0.909793C10.9769 0.866394 12.0279 1.16564 12.9103 1.76357C13.7927 2.36149 14.46 3.22657 14.8142 4.23172C15.1684 5.23686 15.1908 6.32907 14.8781 7.34788C14.5654 8.3667 13.9341 9.2584 13.077 9.89198C12.2199 10.5256 11.1821 10.8676 10.1161 10.8679ZM12.3809 4.37736C12.3809 4.52663 12.3366 4.67254 12.2536 4.79666C12.1707 4.92077 12.0528 5.0175 11.9148 5.07463C11.7769 5.13175 11.6251 5.14669 11.4787 5.11757C11.3322 5.08845 11.1977 5.01657 11.0921 4.91102C10.9865 4.80548 10.9146 4.671 10.8855 4.5246C10.8564 4.3782 10.8713 4.22645 10.9285 4.08854C10.9856 3.95063 11.0824 3.83276 11.2065 3.74983C11.3307 3.6669 11.4766 3.62264 11.6259 3.62264C11.8262 3.62264 12.0182 3.70216 12.1598 3.84369C12.3013 3.98523 12.3809 4.1772 12.3809 4.37736Z" fill="black"/>
</svg>
