<svg width="27" height="28" viewBox="0 0 27 28" fill="none" xmlns="http://www.w3.org/2000/svg">
<path d="M13.5 11.5C16.9518 11.5 19.75 9.26142 19.75 6.5C19.75 3.73858 16.9518 1.5 13.5 1.5C10.0482 1.5 7.25 3.73858 7.25 6.5C7.25 9.26142 10.0482 11.5 13.5 11.5Z" stroke="white" stroke-width="2"/>
<path d="M25.9953 21.5C26 21.295 26 21.0862 26 20.875C26 17.7688 20.4031 15.25 13.5 15.25C6.59687 15.25 1 17.7688 1 20.875C1 23.9812 1 26.5 13.5 26.5C16.9859 26.5 19.5 26.3037 21.3125 25.9537" stroke="white" stroke-width="2" stroke-linecap="round"/>
</svg>
